<svg xmlns="http://www.w3.org/2000/svg" width="512" height="512" id="search"><defs><linearGradient id="a" x1=".5" x2=".5" y2="1" gradientUnits="objectBoundingBox"><stop offset="0" stop-color="#feae07"></stop><stop offset="1" stop-color="#fd2959"></stop></linearGradient></defs><g transform="translate(15522 21737)"><rect width="512" height="512" fill="url(#a)" data-name="RECTANGLE ALBUM COVER" rx="100" transform="translate(-15522 -21737)"></rect><g data-name="magnifying-glass (1)"><path fill="#fff" d="M-15214.448-21599.448a120.219 120.219 0 0 0-170.01 170.02c41.735 41.725 106.736 46.2 153.572 13.614a25.309 25.309 0 0 0 6.868 12.74l68.252 68.252a25.4 25.4 0 0 0 35.914-35.914l-68.249-68.272a25.393 25.393 0 0 0-12.73-6.848c32.599-46.842 28.13-111.836-13.617-153.592Zm-21.553 148.472a89.741 89.741 0 1 1 0-126.913 89.844 89.844 0 0 1 0 126.913Z" data-name="Path 14616"></path></g></g></svg>