<svg width="96" height="96" viewBox="0 0 96 96" fill="none" xmlns="http://www.w3.org/2000/svg">
<g clip-path="url(#clip0_1_2)">
<path d="M77.25 0H18.75C8.39466 0 0 8.39466 0 18.75V77.25C0 87.6053 8.39466 96 18.75 96H77.25C87.6053 96 96 87.6053 96 77.25V18.75C96 8.39466 87.6053 0 77.25 0Z" fill="url(#paint0_linear_1_2)"/>
<path d="M57.666 17.5698C53.4357 13.3567 47.7068 10.9939 41.7363 11C35.7659 11.0062 30.0417 13.3806 25.8201 17.6024C21.5985 21.8243 19.2242 27.5486 19.2184 33.5191C19.2126 39.4895 21.5757 45.2184 25.7891 49.4485C33.6144 57.2719 45.8022 58.1109 54.5839 52.001C54.7715 52.9056 55.2191 53.7359 55.8717 54.3898L68.669 67.187C69.5678 68.051 70.7696 68.528 72.0163 68.5156C73.263 68.5033 74.4551 68.0027 75.3367 67.1211C76.2184 66.2395 76.7191 65.0474 76.7315 63.8007C76.7438 62.5539 76.2668 61.352 75.4028 60.4531L62.6062 47.6522C61.9517 47.002 61.1224 46.556 60.2192 46.3683C66.3315 37.5854 65.4935 25.3991 57.666 17.5698ZM53.6248 45.4081C51.2716 47.7613 48.2734 49.3639 45.0093 50.0132C41.7453 50.6624 38.3622 50.3291 35.2875 49.0556C32.2129 47.782 29.585 45.6256 27.7361 42.8585C25.8872 40.0914 24.9003 36.8382 24.9003 33.5103C24.9003 30.1823 25.8872 26.9291 27.7361 24.162C29.585 21.3949 32.2129 19.2382 35.2875 17.9646C38.3622 16.6911 41.7453 16.3577 45.0093 17.007C48.2734 17.6562 51.2716 19.2589 53.6248 21.6121C56.7757 24.7701 58.5452 29.0492 58.5452 33.5103C58.5452 37.9714 56.7757 42.25 53.6248 45.4081Z" fill="white"/>
<path d="M26.4605 73.1169L23.6655 82.5159H21.9625L20.3375 76.8869L18.6995 82.5159H17.0225L14.221 73.1169H16.3725L17.978 78.7394L19.551 73.1169H21.124L22.736 78.7394L24.309 73.1169H26.4605ZM27.6319 82.5159V73.1169H31.2264C33.2869 73.1169 34.8599 74.2349 34.8599 76.2499C34.8599 78.1154 33.5534 79.2204 31.5124 79.2204H29.8549V82.5159H27.6319ZM29.8354 77.5434H31.4474C32.2339 77.5434 32.8124 76.8934 32.8124 76.1329C32.8124 75.3399 32.1689 74.7809 31.4279 74.7809H29.8354V77.5434ZM39.488 78.3819V79.9679H35.835V78.3884L39.488 78.3819ZM40.216 82.5159L43.557 73.1169H45.8515L49.199 82.5159H47.002L46.3065 80.5139H43.1345L42.426 82.5159H40.216ZM43.6155 78.6094H45.793L44.7075 75.2424L43.6155 78.6094ZM52.5445 82.6459C50.7115 82.6459 49.6715 81.2939 49.6715 79.1164C49.6715 77.0039 50.6205 75.6649 52.317 75.6649C53.1295 75.6649 53.89 76.0029 54.254 76.6334V72.8569H56.477V82.5159H54.8975L54.6375 81.1379C54.3645 81.9764 53.7535 82.6459 52.5445 82.6459ZM53.0515 81.0794C53.825 81.0794 54.254 80.5594 54.254 79.1034C54.254 77.8164 53.825 77.2444 53.058 77.2444C52.356 77.2444 51.823 77.7384 51.823 79.1034C51.823 80.5139 52.33 81.0794 53.0515 81.0794ZM57.962 82.5159V75.7949H60.133V76.7374C60.5555 76.1459 61.251 75.6649 62.2975 75.6649C62.967 75.6649 63.747 76.0354 64.1695 76.7309C64.605 76.1394 65.333 75.6649 66.1975 75.6649C67.2115 75.6649 68.3945 76.3279 68.3945 78.0634V82.5159H66.178V78.3559C66.178 77.7254 65.697 77.4524 65.2355 77.4524C64.8 77.4524 64.2735 77.7189 64.2735 78.3039V82.5159H62.0635V78.2714C62.0635 77.7449 61.576 77.4524 61.134 77.4524C60.6855 77.4524 60.172 77.7384 60.172 78.3039V82.5159H57.962ZM71.9069 73.1169V75.0409H69.7814V73.1169H71.9069ZM71.8939 75.7949V82.5159H69.7879V75.7949H71.8939ZM73.3995 82.5159V75.7949H75.5835V76.7374C75.876 76.2824 76.4025 75.7494 77.462 75.7494C78.6645 75.7494 79.815 76.4124 79.815 78.0634V82.5159H77.592V78.3559C77.592 77.7644 77.1435 77.4654 76.6495 77.4654C76.149 77.4654 75.6095 77.7514 75.6095 78.3039V82.5159H73.3995Z" fill="white"/>
</g>
<defs>
<linearGradient id="paint0_linear_1_2" x1="48" y1="0" x2="48" y2="96" gradientUnits="userSpaceOnUse">
<stop stop-color="#FEAE07"/>
<stop offset="1" stop-color="#FD2959"/>
</linearGradient>
<clipPath id="clip0_1_2">
<rect width="96" height="96" fill="white"/>
</clipPath>
</defs>
</svg>
